<?xml version="1.0" encoding="UTF-8"?>
<svg width="32px" height="32px" viewBox="0 0 32 32" version="1.1" xmlns="http://www.w3.org/2000/svg" xmlns:xlink="http://www.w3.org/1999/xlink">
    <title>Tracer Icon Blue Copy 3</title>
    <g id="Page-5" stroke="none" stroke-width="1" fill="none" fill-rule="evenodd">
        <g id="Tracer-Icon-Blue-Copy-3">
            <rect id="Rectangle-Copy" fill="#2C59FB" x="0" y="0" width="32" height="32" rx="6"></rect>
            <path d="M24.687357,3 C27.1845503,3 29,5.05207262 29,7.35273461 C29,9.63159691 27.1348229,11.7054692 24.687357,11.7054692 L16.0628611,11.7054692 C15.225787,11.7054692 14.6113418,12.3263912 14.6113418,13.1563808 L14.6113418,24.6520645 C14.6113418,25.4436919 15.2460336,26.0981769 16.0628611,26.0981769 C16.8826737,26.0981769 17.5143804,25.4478858 17.5143804,24.6520645 L17.5143804,16.0582038 C17.5143804,15.2568875 18.1642477,14.6072923 18.9658997,14.6072923 C19.7675517,14.6072923 20.417419,15.2568875 20.417419,16.0582038 L20.417419,24.6520645 C20.417419,27.031728 18.5053977,29 16.0628611,29 C13.6221594,29 11.7083032,27.0264589 11.7083032,24.6520645 L11.7083032,13.1563808 C11.7083032,10.7307991 13.6153541,8.80364615 16.0628611,8.80364615 L24.687357,8.80364615 C25.4585304,8.80364615 26.0969614,8.09378094 26.0969614,7.35273461 C26.0969614,6.58070548 25.4963604,5.90182307 24.6894174,5.90182161 C24.6849002,5.90182802 24.6805337,5.90183422 24.6762901,5.90184024 L24.5441459,5.90202773 C24.5392673,5.90203465 24.5342081,5.90204183 24.5289406,5.90204931 L24.378236,5.90226313 C24.3686998,5.90227666 24.3587621,5.90229076 24.3483952,5.90230547 L24.2427617,5.90245535 C24.2295716,5.90247407 24.2158696,5.90249351 24.201628,5.90251372 L24.1094832,5.90264446 C24.092973,5.90266788 24.0758681,5.90269215 24.0581408,5.9027173 L23.9440878,5.90287913 C23.921502,5.90291117 23.8995436,5.90294233 23.8781705,5.90297266 L23.7566182,5.90314512 C23.7374177,5.90317236 23.7187183,5.9031989 23.7004777,5.90322478 L23.5962045,5.90337272 C23.5796312,5.90339624 23.5634325,5.90341922 23.5475665,5.90344174 L23.4560239,5.90357162 C23.4413196,5.90359248 23.4268637,5.903613 23.412614,5.90363321 L23.2887976,5.90380889 C23.2754062,5.90382789 23.2620946,5.90384678 23.2488209,5.90386561 L23.1292393,5.90403528 C23.115813,5.90405433 23.1022982,5.90407351 23.0886526,5.90409287 L22.9611765,5.90427374 C22.9463676,5.90429475 22.9313018,5.90431613 22.9159367,5.90433793 L22.8198195,5.9044743 C22.8030893,5.90449804 22.7859757,5.90452232 22.7684366,5.90454721 L22.6577589,5.90470425 C22.4830723,5.9049521 22.2670961,5.90525854 21.9791278,5.90566713 C20.993568,5.9070655 20.3663935,5.90795537 19.8108962,5.90874354 L19.6733492,5.9089387 C19.5596945,5.90909996 19.4481139,5.90925827 19.3360148,5.90941733 L19.201081,5.90960878 C19.0881523,5.90976901 18.973668,5.90993145 18.8550358,5.91009977 L18.7105203,5.91030481 C18.0742203,5.91120763 17.2977186,5.91230938 16.0164908,5.91412726 L15.8708759,5.91433386 C14.4845176,5.91630091 13.7086381,5.91740177 13.0374121,5.91835415 L12.8998651,5.91854931 C12.7862105,5.91871057 12.6746299,5.91886888 12.5625307,5.91902794 L12.427597,5.91921939 C12.2243253,5.9195078 12.0160138,5.91980336 11.7875431,5.92012753 L11.6320768,5.92034812 C11.2086511,5.9209489 10.7108936,5.92165514 10.0538537,5.92258739 C9.86187485,5.92285978 9.70189248,5.92308677 9.56480955,5.92328127 L9.43502283,5.92346542 C9.37360912,5.92355256 9.31716218,5.92363265 9.26454489,5.92370731 L9.1170448,5.92391659 C9.10167975,5.92393839 9.08661388,5.92395977 9.07180505,5.92398078 L8.9856998,5.92410295 C8.97175072,5.92412274 8.95797446,5.92414229 8.9443289,5.92416165 L8.8239108,5.9243325 C8.81067043,5.92435129 8.79743441,5.92437007 8.78416064,5.9243889 L8.66254006,5.92456147 C8.64866068,5.92458116 8.63461721,5.92460108 8.62036751,5.9246213 L8.48541506,5.92481278 C8.46954898,5.92483529 8.45335033,5.92485828 8.43677699,5.92488179 L8.3325038,5.92502974 C8.25954162,5.92513326 8.17923674,5.9252472 8.08889376,5.92537539 L8.03391944,5.92545339 C8.01666292,5.92547787 8.00043732,5.9255009 7.98513057,5.92552261 L7.86915336,5.92568717 C7.85835123,5.9257025 7.84813179,5.925717 7.83838298,5.92573083 L7.71344135,5.9259081 C7.70559748,5.92591923 7.69766397,5.92593049 7.68952875,5.92594203 L7.57505308,5.92610445 L7.53836619,5.92615651 L7.39332335,5.9263623 C7.38766588,5.92637033 7.38342278,5.92637635 7.380013,5.92638119 L7.34150376,5.92643437 C6.5187157,5.92643437 5.90303859,6.5674019 5.90303859,7.35273461 C5.90303859,8.1467417 6.52679352,8.80364615 7.34150376,8.80364615 C8.14315573,8.80364615 8.79302306,9.45324137 8.79302306,10.2545577 C8.79302306,11.055874 8.14315573,11.7054692 7.34150376,11.7054692 C4.88862087,11.7054692 3,9.71647738 3,7.35273461 C3,4.9905816 4.88839972,3.02461129 7.3394434,3.02461275 L7.37589228,3.02456104 L7.38920263,3.02454215 L7.53424547,3.02433636 C7.54719906,3.02431798 7.55939067,3.02430068 7.57093236,3.0242843 L7.68540803,3.02412188 C7.69354325,3.02411034 7.70147676,3.02409908 7.70932063,3.02408795 L7.83426226,3.02391068 C7.84401107,3.02389684 7.85423051,3.02388234 7.86503264,3.02386702 L7.98100985,3.02370246 C8.01162335,3.02365903 8.04591227,3.02361038 8.08477304,3.02355524 L8.15069025,3.02346171 C8.21480954,3.02337073 8.27366144,3.02328723 8.32838308,3.02320959 L8.48129434,3.02299263 C8.49716042,3.02297012 8.51269393,3.02294808 8.52793698,3.02292645 L8.61624679,3.02280115 C8.63049649,3.02278093 8.64453997,3.02276101 8.65841934,3.02274132 L8.78003992,3.02256875 C8.79331369,3.02254992 8.80654971,3.02253114 8.81979008,3.02251235 L8.94020818,3.0223415 C8.95385374,3.02232214 8.96763,3.02230259 8.98157908,3.0222828 L9.06768433,3.02216063 C9.08249316,3.02213962 9.09755904,3.02211824 9.11292408,3.02209644 L9.26042417,3.02188716 C9.31304146,3.0218125 9.3694884,3.02173241 9.43090211,3.02164527 L9.56068883,3.02146112 C9.69777176,3.02126662 9.85775413,3.02103963 10.049733,3.02076724 C11.1584878,3.01919407 11.8136611,3.01826448 12.4234763,3.01739924 L12.55841,3.01720778 C12.6705092,3.01704873 12.7820898,3.01689042 12.8957444,3.01672916 L13.0332914,3.016534 C13.7276631,3.01554878 14.5340303,3.01440466 16.01237,3.01230711 L16.1579848,3.0121005 C17.2575104,3.01054043 17.9730368,3.0095252 18.5569064,3.00869677 L18.7063995,3.00848466 C18.8777111,3.0082416 19.0388601,3.00801295 19.1969603,3.00778863 L19.331894,3.00759718 C19.4439932,3.00743812 19.5555738,3.00727981 19.6692285,3.00711855 L19.8067754,3.00692339 C20.3622728,3.00613522 20.9894473,3.00524535 21.9750071,3.00384698 C22.2629754,3.00343839 22.4789516,3.00313195 22.6536382,3.0028841 L22.7643159,3.00272706 C22.781855,3.00270217 22.7989686,3.00267789 22.8156988,3.00265415 L22.911816,3.00251778 C22.927181,3.00249598 22.9422469,3.0024746 22.9570557,3.00245359 L23.0845319,3.00227272 C23.0981774,3.00225336 23.1116923,3.00223418 23.1251186,3.00221513 L23.2447002,3.00204546 C23.2579739,3.00202663 23.2712855,3.00200774 23.2846769,3.00198874 L23.4084933,3.00181306 C23.422743,3.00179285 23.4371989,3.00177233 23.4519032,3.00175147 L23.5434457,3.00162159 C23.5593118,3.00159907 23.5755105,3.00157609 23.5920838,3.00155257 L23.696357,3.00140463 C23.7145975,3.00137875 23.733297,3.00135221 23.7524975,3.00132497 L23.8740498,3.00115251 L23.939967,3.00105898 L24.0540207,3.00089715 C24.0717483,3.000872 24.0888537,3.00084773 24.1053645,3.0008243 L24.1975168,3.00069356 C24.2117603,3.00067335 24.2254646,3.00065391 24.2386574,3.00063519 L24.3443301,3.00048528 C24.3547032,3.00047057 24.3646478,3.00045647 24.3741916,3.00044293 L24.5251948,3 C24.5304844,3 24.5355669,3 24.5404702,3 L24.6740305,3 L24.687357,3 Z" id="Correct-T" fill="#FFFFFF" fill-rule="nonzero"></path>
        </g>
    </g>
</svg>